#N canvas 0 25 1440 789 12;
#N canvas 0 25 1440 789 engine 1;
#X msg 15 85 \; pd dsp \$1;
#X obj 16 36 tgl 19 0 empty dsp empty 0 -10 0 12 #fcfcfc #000000 #000000 0 1;
#X obj 119 24 cnv 19 1500 700 empty empty empty 20 12 0 12 #e0e0e0 #404040 0;
#X obj 190 369 mtof;
#X floatatom 190 410 5 0 0 0 - - - 0;
#X obj 190 459 / 12543.9 Hz;
#X floatatom 232 598 5 0 0 0 - - freq 0;
#X obj 188 144 ctlin 23 1;
#X floatatom 189 202 5 0 0 0 - - - 0;
#X obj 246 298 s muteNoise;
#X obj 190 514 + 110;
#X obj 190 486 * 310;
#X obj 272 241 s muteOsc;
#X obj 190 638 s osc2;
#X obj 190 562 * 3;
#X obj 939 593 osc~;
#X floatatom 921 253 5 0 0 0 - - - 0;
#X obj 921 206 r muteOsc;
#X obj 858 381 r osc2;
#X obj 883 420 spigot;
#X floatatom 921 341 5 0 0 0 - - - 0;
#X obj 939 652 s~ osc3;
#X obj 981 417 spigot;
#X floatatom 1020 339 5 0 0 0 - - - 0;
#X msg 977 384 0;
#X obj 939 544 line~;
#X msg 939 503 \$1 400;
#X text 642 46 1 Oscillator ( Conductivity -> Frequency );
#X text 356 238 Send the value to control the oscillator;
#X text 344 290 Send the value to mute/unmute noise depending upon conductivity, f 38;
#X text 244 363 converting the MIDI values to Frequency;
#X text 282 483 Normalising and sclaing the maximum MIDI value between 110 Hz and 420 Hz, f 54;
#X text 270 549 Again amplifying the value to show variation in small differences;
#X text 269 637 Sending the value to the controlling part of Oscillator;
#X text 919 135 Since the MIDI values are scaled between specific frequencies \, this patch it to turn off the oscillator when the MIDI value is 0 ie when the probe is not dipped in the water, f 71;
#X text 1035 201 Receive the values read from CC#23;
#X text 1079 322 Checks the MIDI values and turns off the oscillator if it is less than or equal to 1 It turns on the oscialltor if the value read is more or equal to 2;
#X text 1019 522 Smoothen the transistion of frequency;
#X text 1013 588 Oscillator to produce a cosine wave depending upon the frequency, f 64;
#X text 1019 650 Send to the output patch;
#X obj 120 827 cnv 19 1500 600 empty empty empty 20 12 0 12 #e0e0e0 #404040 0;
#X obj 179 1007 noise~;
#X obj 179 1220 *~;
#X floatatom 853 1053 5 0 0 0 - - - 0;
#X floatatom 782 1135 5 0 0 0 - - - 0;
#X obj 782 1214 spigot;
#X floatatom 925 1131 5 0 0 0 - - - 0;
#X obj 932 1208 spigot;
#X msg 742 1180 0 500;
#X obj 855 1264 line~;
#X obj 852 1001 r muteNoise;
#X obj 857 1362 s~ NoiseAmp;
#X obj 197 1159 r~ NoiseAmp;
#X obj 179 1286 s~ Noise;
#X obj 178 1086 bp~ 2000 5;
#X obj 1042 1213 route 1 3;
#X obj 1034 1147 + 2;
#X symbolatom 1141 1280 36 0 0 0 - - water 0;
#X msg 1152 1245 symbol Water_is_safe_for_drinking;
#X msg 876 1174 0.25 500;
#X obj 781 1095 <= 14;
#X obj 924 1086 >= 14;
#X msg 1093 1308 symbol Warning_Water_is_not_safe_for_drinking;
#X text 706 857 2 Noise generator;
#X text 252 1005 produces an uniformly distributed noise generator;
#X text 273 1080 Band pass filter to send only certain range of frequencies (here it is 2000 Hz);
#X text 263 1183 The amplitude of noise is controlled by NoiseAmp patch (adjacent patch);
#X text 269 1286 Noise is sent to the output patch;
#X text 538 896 This patch generates noise depending upon the frequency value ie the conductivity value to indicate the salinity (conductivity is directly propotional to salinity) and displays if the water is safe or not safe for drinking, f 115;
#X text 983 994 Receives the conductivity MIDI values read from CC#23;
#X text 995 1078 if the value is below 14 \, it sends true value and mutes the noise and displays that the water is safe;
#X text 1089 1139 if the value is above 14 \, it unmutes the noise by sending 1 to another message box and it displays the warning \, that the water is not safe for drinking, f 48;
#X text 972 1361 Send the value to Noise generator's amplitude;
#X obj 121 1470 cnv 19 800 450 empty empty empty 20 12 0 12 #e0e0e0 #404040 0;
#X obj 230 1753 vline~;
#X obj 230 1663 bng 19 250 50 0 empty Ref empty 0 -10 0 12 #fcfcfc #000000 #000000;
#X obj 211 1790 *~;
#X obj 207 1856 dac~;
#X obj 212 1621 osc~ 330;
#X msg 230 1709 0.3 10 0 \, 0 10 3000;
#X text 428 1487 3.Reference sound;
#X text 251 1529 This patch is to create a reference audio \, to give the users an idea how the water with standard quality and temperature for drinking would sound like, f 77;
#X text 390 1763 Amplitude enveloped is created for the audio to play for 3 seconds, f 54;
#X text 390 1659 bang is used to play the reference audio;
#X obj 119 1969 cnv 19 1500 600 empty empty empty 20 12 0 12 #e0e0e0 #404040 0;
#X obj 892 2122 r temp;
#X floatatom 892 2172 5 0 0 0 - - - 0;
#X obj 820 2217 <= 3;
#X floatatom 821 2259 5 0 0 0 - - - 0;
#X floatatom 952 2256 5 0 0 0 - - - 0;
#X obj 821 2321 route 1 3;
#X obj 953 2301 + 2;
#X symbolatom 824 2433 47 0 0 0 - - tempstatus 0;
#X msg 882 2374 symbol Water_is_in_normal_temperature;
#X obj 191 2452 s~ amp;
#X obj 190 2091 ctlin 22 1;
#X floatatom 190 2159 5 0 0 0 - - - 0;
#X obj 191 2240 / 127;
#X floatatom 191 2276 5 0 0 0 - - - 0;
#X floatatom 237 2384 5 0 0 0 - - amp 0;
#X obj 277 2163 s temp;
#X obj 191 2335 * 4;
#X text 511 1989 4 Amplitude controller ( Temperature -> Amplitude );
#X text 270 142 conductivity MIDI values are obtained from CC#23 n channel 1;
#X text 303 2091 Temperature MIDI values are obtained from CC#22 through channel 1, f 65;
#X text 358 2165 Send the value to control the display;
#X text 296 2237 To scale the MIDI values between 0 and 1;
#X text 264 2331 Values are amplified to show variations in small differences;
#X text 292 2455 values are sent to the output patch;
#X text 893 2054 This patch is to display the temperature condition of water. Depending upon the MIDI values \, it shows if the water is hot \, normal or cold.;
#X text 987 2124 Receive the values read from CC#22;
#X text 1019 2216 If the MIDI value is below 3 \, it will display that water is cold.;
#X text 1031 2291 If the MIDI value is in between 3 and 25 \, it will display that water is in normal temperature;
#X text 1168 2420 If the MIDI value is above 25 \, it will display that water is hot, f 39;
#X obj 122 2609 cnv 19 600 400 empty empty empty 20 12 0 12 #e0e0e0 #404040 0;
#X obj 263 2847 r~ amp;
#X obj 245 2905 *~;
#X obj 240 2973 dac~;
#X obj 170 2744 r~ Noise;
#X obj 228 2801 r~ osc3;
#X text 285 2743 Receieve from Noise generator;
#X text 318 2795 Receieve from Oscillator;
#X text 340 2847 Receieve from Amplitude generator;
#X text 374 2627 5.Output;
#X text 230 2671 This is the final patch \, where all other patches are connected to the output audio system.;
#X obj 952 2215 >= 16;
#X msg 852 2411 symbol Water_is_hot;
#X msg 822 2463 symbol Water_is_cold;
#X obj 921 300 >= 2;
#X obj 1020 295 <= 1;
#X connect 1 0 0 0;
#X connect 3 0 4 0;
#X connect 4 0 5 0;
#X connect 5 0 11 0;
#X connect 7 0 8 0;
#X connect 8 0 9 0;
#X connect 8 0 12 0;
#X connect 8 0 3 0;
#X connect 10 0 14 0;
#X connect 11 0 10 0;
#X connect 14 0 6 0;
#X connect 14 0 13 0;
#X connect 15 0 21 0;
#X connect 16 0 128 0;
#X connect 16 0 129 0;
#X connect 17 0 16 0;
#X connect 18 0 19 0;
#X connect 19 0 26 0;
#X connect 20 0 19 1;
#X connect 22 0 26 0;
#X connect 23 0 22 1;
#X connect 23 0 24 0;
#X connect 24 0 22 0;
#X connect 25 0 15 0;
#X connect 26 0 25 0;
#X connect 41 0 54 0;
#X connect 42 0 53 0;
#X connect 43 0 60 0;
#X connect 43 0 61 0;
#X connect 44 0 48 0;
#X connect 44 0 45 1;
#X connect 44 0 56 0;
#X connect 45 0 49 0;
#X connect 46 0 59 0;
#X connect 46 0 47 1;
#X connect 46 0 55 0;
#X connect 47 0 49 0;
#X connect 48 0 45 0;
#X connect 49 0 51 0;
#X connect 50 0 43 0;
#X connect 52 0 42 1;
#X connect 54 0 42 0;
#X connect 55 0 62 0;
#X connect 55 1 58 0;
#X connect 56 0 55 0;
#X connect 58 0 57 0;
#X connect 59 0 47 0;
#X connect 60 0 44 0;
#X connect 61 0 46 0;
#X connect 62 0 57 0;
#X connect 74 0 76 1;
#X connect 75 0 79 0;
#X connect 76 0 77 0;
#X connect 76 0 77 1;
#X connect 78 0 76 0;
#X connect 79 0 74 0;
#X connect 85 0 86 0;
#X connect 86 0 87 0;
#X connect 86 0 125 0;
#X connect 87 0 88 0;
#X connect 88 0 90 0;
#X connect 89 0 91 0;
#X connect 90 0 127 0;
#X connect 90 1 126 0;
#X connect 90 2 93 0;
#X connect 91 0 90 0;
#X connect 93 0 92 0;
#X connect 95 0 96 0;
#X connect 95 0 100 0;
#X connect 96 0 97 0;
#X connect 97 0 98 0;
#X connect 98 0 101 0;
#X connect 101 0 99 0;
#X connect 101 0 94 0;
#X connect 115 0 116 1;
#X connect 116 0 117 0;
#X connect 116 0 117 1;
#X connect 118 0 116 0;
#X connect 119 0 116 0;
#X connect 125 0 89 0;
#X connect 126 0 92 0;
#X connect 127 0 92 0;
#X connect 128 0 20 0;
#X connect 129 0 23 0;
#X restore 2 56 pd engine;
#X obj 21 7 cnv 50 1400 900 empty empty AQUASONIC\  400 50 1 100 #00faff #0400ff 0;
#X floatatom 1013 738 8 0 0 0 Current\ frequency\ of\ the\ output\ signal(Hz) freq - 36;
#X floatatom 950 832 8 0 0 0 Current\ amplitude\ of\ the\ output\ signal\  amp - 36;
#X obj 1133 298 bng 150 250 50 0 Ref empty Reference\ signal\  -50 -30 1 36 #0400ff #c6feff #0400ff;
#X symbolatom 595 554 37 0 0 0 Status\ of\ water\ quality water - 36;
#X symbolatom 683 643 33 0 0 0 Status\ of\ water\ temperature tempstatus - 36;
#X text 388 151 AQUASONIC IS AN INTERACTIVE SONIFICATION SYSTEM THAT ASSSES THE QUALITY OF WATER USING ITS PARAMETERS, f 105;
#X text 182 278 PLAY THE REFERENCE SIGNAL TO KNOW HOW THE 'STANDARD DRINKING WATER' SOUNDS LIKE ->, f 83;
#X text 179 323 THE FREQUENCY SIGNIFY "THE CONDUCTIVITY OF WATER" AND THE AMPLITUDE" AND THE AMPLITUDE SIGNIFY "THE TEMPERATURE OF THE WATER"., f 98;
#X text 179 380 AS THE CONDUCTIVITY INCREASES \, FREQUENCY ALSO INCREASES INDICATING THAT SALINITY ALSO INCREASES AND THE WATER QUALITY STATUS FOR DRINKING IS DISPLAYED BELOW., f 114;
#X text 183 234 HERE IS A REFERENCE SIGNAL THAT INDICATES THE FREQUENCY AND AMPLITUDE OF A STANDARD QUALITY OF WATER., f 139;
#X text 183 439 THE TEMPERATURE CHANGES PROPOTIONAL TO THE AMPLITUDE OF THE OUTPUT SIGNAL AND ITS STATUS IS SHOWN BELOW., f 118;
#X obj 62 42 tgl 50 0 dsp empty Dsp\ Audio\ On/Off -20 -10 0 12 #0400ff #c6feff #000000 0 1;
#X text 190 487 THERE IS ALSO A NOISE PRODUCED TO INDICATE THAT THERE IS SALINITY AND IT IS NOT SUITABLE FOR DRINKING, f 104;
